<?xml version='1.0' encoding='utf-8'?>
<svg xmlns="http://www.w3.org/2000/svg" id="uuid-d4d24eb3-f5c9-4c20-aa02-99a59112fcdd" data-name="Fond" viewBox="0 0 623.21 101.27"><defs>
    <linearGradient id="uuid-52bf4084-a8fc-4f92-9992-1c534dad0a0e" data-name="Dégradé sans nom 13" x1="0" y1="77.41" x2="623.21" y2="77.41" gradientUnits="userSpaceOnUse">
      <stop offset="0" stop-color="#e00333" />
      <stop offset=".38" stop-color="#de0232" />
      <stop offset=".52" stop-color="#d70231" />
      <stop offset=".62" stop-color="#cb022e" />
      <stop offset=".7" stop-color="#ba022a" />
      <stop offset=".77" stop-color="#a40225" />
      <stop offset=".83" stop-color="#89021f" />
      <stop offset=".88" stop-color="#680118" />
      <stop offset=".93" stop-color="#43010f" />
      <stop offset=".98" stop-color="#1a0106" />
      <stop offset="1" stop-color="#010101" />
    </linearGradient>
  </defs>
  <path d="M0,53.56v47.71h623.21v-17.82c-64.93,5.6-136.94,8.72-212.74,8.72C243.56,92.17,95.04,77.05,0,53.56Z" style="fill: url(#uuid-52bf4084-a8fc-4f92-9992-1c534dad0a0e);" />
  <g>
    <g>
      <path d="M54.01,88.98h3.81c.04.2.06.45.06.71,0,.85-.23,1.9-.98,2.64-.73.75-1.65,1.16-2.89,1.16-2.28,0-4.2-1.86-4.2-4.14,0-2.28,1.92-4.14,4.2-4.14,1.26,0,2.16.5,2.83,1.15l-.8.8c-.48-.45-1.14-.81-2.04-.81-1.66,0-2.96,1.34-2.96,3.01s1.3,3.01,2.96,3.01c1.08,0,1.69-.43,2.09-.83.32-.33.53-.79.62-1.42h-2.7v-1.13Z" style="fill: #1e1e1c;" />
      <path d="M61.25,88.06c1.48,0,2.68,1.12,2.68,2.67s-1.2,2.67-2.68,2.67-2.68-1.14-2.68-2.67c0-1.55,1.2-2.67,2.68-2.67ZM61.25,92.35c.81,0,1.51-.67,1.51-1.62,0-.96-.7-1.62-1.51-1.62s-1.51.66-1.51,1.62c0,.95.7,1.62,1.51,1.62Z" style="fill: #1e1e1c;" />
      <path d="M74.39,88.66v-.46h1.11v4.8c0,1.97-1.16,2.78-2.54,2.78-1.3,0-2.07-.87-2.37-1.58l1.02-.42c.18.44.63.95,1.35.95.88,0,1.42-.55,1.42-1.57v-.37s-.04,0-.04,0c-.26.32-.77.61-1.41.61-1.33,0-2.5-1.17-2.5-2.67s1.16-2.67,2.5-2.67c.64,0,1.14.28,1.41.6h.04ZM73.04,92.35c.8,0,1.43-.68,1.42-1.61,0-.94-.62-1.63-1.42-1.63s-1.42.68-1.42,1.62.62,1.62,1.42,1.62Z" style="fill: #1e1e1c;" />
      <path d="M67.23,88.06c1.48,0,2.68,1.12,2.68,2.67s-1.2,2.67-2.68,2.67-2.68-1.14-2.68-2.67,1.2-2.67,2.68-2.67ZM67.23,92.35c.81,0,1.51-.67,1.51-1.62s-.7-1.62-1.51-1.62-1.51.66-1.51,1.62.7,1.62,1.51,1.62Z" style="fill: #1e1e1c;" />
      <path d="M76.42,85.33v8.07s1.15,0,1.15,0v-8.07s-1.15,0-1.15,0Z" style="fill: #1e1e1c;" />
      <path d="M81.13,92.35h0c.6,0,1.01-.29,1.31-.74l.91.61c-.29.43-1,1.18-2.22,1.18-1.52,0-2.65-1.17-2.65-2.67,0-1.59,1.14-2.67,2.52-2.67s2.06,1.1,2.28,1.7l.12.3-3.57,1.48c.28.54.7.81,1.3.81ZM81.05,89.06c-.61,0-1.4.46-1.4,1.59l2.41-1c-.13-.34-.54-.59-1.01-.59Z" style="fill: #1e1e1c;" />
    </g>
    <g>
      <path d="M91.56,93.09c-.05,0-.1-.02-.15-.05-.08-.06-.12-.15-.1-.24l.25-1.46-1.06-1.03c-.07-.07-.09-.17-.06-.26.03-.09.11-.16.2-.17l1.46-.21.65-1.32c.04-.09.13-.14.22-.14s.18.05.22.14l.65,1.32,1.46.21c.09.01.17.08.2.17.03.09,0,.19-.06.26l-1.06,1.03.25,1.46c.02.09-.02.19-.1.24-.04.03-.09.05-.15.05-.04,0-.08,0-.12-.03l-1.31-.69-1.31.69s-.08.03-.12.03Z" style="fill: #1e1e1c;" />
      <path d="M115.88,93.09s-.08,0-.12-.03l-1.31-.69-1.31.69s-.08.03-.12.03c-.05,0-.1-.02-.15-.05-.08-.06-.12-.15-.1-.24l.25-1.46-1.06-1.03c-.07-.07-.09-.17-.06-.26.03-.09.11-.16.2-.17l1.46-.21.65-1.32c.04-.09.13-.14.22-.14s.18.05.22.14l.65,1.32,1.46.21c.09.01.17.08.2.17.03.09,0,.19-.06.26l-1.06,1.03.25,1.46c.02.09-.02.19-.1.24-.04.03-.09.05-.15.05Z" style="fill: #1e1e1c;" />
      <path d="M105.88,93.09c-.05,0-.1-.02-.15-.05-.08-.06-.12-.15-.1-.24l.25-1.46-1.06-1.03c-.07-.07-.09-.17-.06-.26.03-.09.11-.16.2-.17l1.46-.21.65-1.32c.04-.09.13-.14.22-.14s.18.05.22.14l.65,1.32,1.46.21c.09.01.17.08.2.17.03.09,0,.19-.06.26l-1.06,1.03.25,1.46c.02.09-.02.19-.1.24-.04.03-.09.05-.15.05-.04,0-.08,0-.12-.03l-1.31-.69-1.31.69s-.08.03-.12.03Z" style="fill: #1e1e1c;" />
      <path d="M101.56,93.09s-.08,0-.12-.03l-1.31-.69-1.31.69s-.08.03-.12.03c-.05,0-.1-.02-.15-.05-.08-.06-.12-.15-.1-.24l.25-1.46-1.06-1.03c-.07-.07-.09-.17-.06-.26.03-.09.11-.16.2-.17l1.46-.21.65-1.32c.04-.09.13-.14.22-.14s.18.05.22.14l.65,1.32,1.46.21c.09.01.17.08.2.17.03.09,0,.19-.06.26l-1.06,1.03.25,1.46c.02.09-.02.19-.1.24-.04.03-.09.05-.15.05Z" style="fill: #1e1e1c;" />
      <path d="M120.19,93.09c-.05,0-.1-.02-.15-.05-.08-.06-.12-.15-.1-.24l.25-1.46-1.06-1.03c-.07-.07-.09-.17-.06-.26.03-.09.11-.16.2-.17l1.46-.21.65-1.32c.04-.09.13-.14.22-.14s.18.05.22.14l.65,1.32,1.46.21c.09.01.17.08.2.17.03.09,0,.19-.06.26l-1.06,1.03.25,1.46c.02.09-.02.19-.1.24-.04.03-.09.05-.15.05-.04,0-.08,0-.12-.03l-1.31-.69-1.31.69s-.08.03-.12.03Z" style="fill: #1e1e1c;" />
    </g>
    <g>
      <path d="M32.14,87.9h1.03l2.18,5.15h-1.17l-.46-1.15h-2.15l-.46,1.15h-1.14l2.18-5.15ZM33.31,90.91l-.68-1.66-.67,1.66h1.35Z" style="fill: #1e1e1c;" />
      <path d="M35.15,87.93h1.24l1.33,3.6,1.33-3.6h1.21l-2.05,5.15h-.99l-2.06-5.15Z" style="fill: #1e1e1c;" />
      <path d="M41.27,87.93h1.12v5.12h-1.12v-5.12Z" style="fill: #1e1e1c;" />
      <path d="M43.49,92.3l.66-.8c.46.38.94.62,1.52.62.46,0,.73-.18.73-.48h0c0-.3-.17-.45-1.02-.67-1.02-.26-1.68-.55-1.68-1.56h0c0-.94.74-1.56,1.78-1.56.74,0,1.37.23,1.89.65l-.58.85c-.45-.31-.89-.5-1.32-.5s-.65.2-.65.45h0c0,.35.22.46,1.1.69,1.03.27,1.61.64,1.61,1.54h0c0,1.03-.77,1.6-1.87,1.6-.77,0-1.55-.27-2.16-.82Z" style="fill: #1e1e1c;" />
      <path d="M86.32,89.13h1.18v1.17h-1.18v-1.17ZM86.32,91.88h1.18v1.17h-1.18v-1.17Z" style="fill: #1e1e1c;" />
    </g>
  </g>
  <path d="M0,59.69c95.04,23.49,243.56,38.61,410.48,38.61,75.8,0,147.81-3.12,212.74-8.72V0H0v59.69Z" style="fill: #010202;" />
  </svg>